<?xml version="1.0" encoding="UTF-8" standalone="no"?>
<svg
   xmlns:dc="http://purl.org/dc/elements/1.1/"
   xmlns:cc="http://creativecommons.org/ns#"
   xmlns:rdf="http://www.w3.org/1999/02/22-rdf-syntax-ns#"
   xmlns:svg="http://www.w3.org/2000/svg"
   xmlns="http://www.w3.org/2000/svg"
   viewBox="0 0 168.46042 170.79375"
   version="1.1"
   id="svg8">
  <defs
     id="defs2">
    <rect
       x="47.625"
       y="127"
       id="rect846" />
  </defs>
  <metadata
     id="metadata5">
    <rdf:RDF>
      <cc:Work
         rdf:about="">
        <dc:format>image/svg+xml</dc:format>
        <dc:type
           rdf:resource="http://purl.org/dc/dcmitype/StillImage" />
        <dc:title></dc:title>
      </cc:Work>
    </rdf:RDF>
  </metadata>
  <g
     id="layer1"
     style="display:inline"
     transform="translate(-20.769789,-63.103125)">
    <ellipse
       style="fill:#1c5d99;stroke:none;stroke-width:0.79375;stroke-linejoin:round;stroke-miterlimit:4;stroke-dasharray:none;stroke-opacity:1"
       id="path902"
       ry="85"
       rx="83.833336"
       cy="148.5"
       cx="105" />
    <path
       id="path837"
       style="fill:#784f41;stroke:none;stroke-width:0.79375;stroke-linejoin:round;stroke-miterlimit:4;stroke-dasharray:none;stroke-opacity:1"
       d="m 104.99897,70.131121 c 2e-5,0.0067 -2e-5,0.01344 0,0.02015 -7.936314,13.228014 -13.227105,26.68067 -13.227105,47.621389 -5.1e-5,10.48755 7.462919,25.52007 0.402561,28.57655 -18.346971,7.94253 -30.211985,6.33422 -31.934486,11.11095 h 44.76109 c 4e-5,-0.006 -3e-5,-0.011 0,-0.0165 h 44.75903 c -1.72251,-4.77673 -13.58751,-3.16842 -31.93448,-11.11095 -7.06037,-3.05648 0.4026,-18.089 0.40255,-28.57655 0,-20.942608 -5.29166,-34.39584 -13.22916,-47.625006 z m 0.0134,15.861564 c 2.50762,0.06775 4.50523,2.120119 4.50515,4.628658 -8e-5,2.512843 -2.00443,4.566959 -4.51652,4.628658 l -0.002,0.01654 c -2.51209,-0.0617 -4.51644,-2.115815 -4.51652,-4.628658 -8e-5,-2.508539 1.99753,-4.560904 4.50515,-4.628658 z" />
    <path
       id="path850"
       style="font-style:normal;font-variant:normal;font-weight:bold;font-stretch:normal;font-size:11.2889px;line-height:1.25;font-family:Georgia;-inkscape-font-specification:'Georgia, Bold';font-variant-ligatures:normal;font-variant-caps:normal;font-variant-numeric:normal;font-variant-east-asian:normal;letter-spacing:0px;word-spacing:0px;white-space:pre;display:inline;fill:#f7a1c4;fill-opacity:1;stroke:none;stroke-width:0.793753;stroke-miterlimit:4;stroke-dasharray:none;stroke-opacity:1"
       d="m 60.947903,157.64827 v 2.66288 c 0.995749,0.0454 2.03784,0.1367 3.126942,0.27337 1.089088,0.13668 2.131716,0.3187 3.127457,0.54622 1.213559,0.29607 2.022721,0.76277 2.427242,1.39992 0.37343,0.6373 0.560171,1.34281 0.560171,2.11666 v 34.31212 c 0,0.8194 -0.186741,1.51351 -0.560171,2.08256 -0.404532,0.54625 -1.213694,1.02432 -2.427242,1.43402 -0.62234,0.20481 -1.633654,0.39823 -3.033925,0.58033 -1.43138,0.18209 -2.536089,0.30707 -3.314009,0.37517 v 2.66288 h 35.893417 v -2.66288 c -1.057982,-0.0681 -2.349442,-0.18168 -3.874183,-0.34107 -1.55585,-0.15939 -2.613866,-0.33001 -3.173965,-0.51211 -1.151332,-0.34149 -1.975893,-0.8082 -2.473751,-1.39991 -0.497851,-0.59176 -0.746726,-1.34317 -0.746726,-2.25361 V 162.73529 L 105,197.35334 123.52084,162.73529 v 36.18953 c 0,0.91044 -0.24888,1.66185 -0.74673,2.25361 -0.49786,0.59171 -1.32242,1.05842 -2.47375,1.39991 -0.5601,0.1821 -1.61811,0.35272 -3.17397,0.51211 -1.52474,0.15939 -2.8162,0.27293 -3.87418,0.34107 v 2.66288 h 35.89342 v -2.66288 c -0.77792,-0.0681 -1.88263,-0.19308 -3.31401,-0.37517 -1.40027,-0.1821 -2.41159,-0.37552 -3.03392,-0.58033 -1.21355,-0.4097 -2.02272,-0.88777 -2.42725,-1.43402 -0.37343,-0.56905 -0.56017,-1.26316 -0.56017,-2.08256 v -34.31212 c 0,-0.77385 0.18674,-1.47936 0.56017,-2.11666 0.40452,-0.63715 1.21369,-1.10385 2.42725,-1.39992 0.99574,-0.22752 2.03835,-0.40954 3.12745,-0.54622 1.08909,-0.13667 2.13119,-0.22795 3.12694,-0.27337 v -2.66288 h -29.35841 c -0.0311,0.40969 -0.26459,1.27453 -0.70022,2.59467 -0.43565,1.32011 -0.88717,2.4583 -1.35392,3.41426 L 105,187.50691 92.360456,163.6572 c -0.466741,-0.95596 -0.918284,-2.09415 -1.353923,-3.41426 -0.435642,-1.32014 -0.669115,-2.18498 -0.700217,-2.59467 z" />
  </g>
</svg>
