<?xml version="1.0" encoding="UTF-8" standalone="no"?>
<svg
   xmlns:dc="http://purl.org/dc/elements/1.1/"
   xmlns:cc="http://creativecommons.org/ns#"
   xmlns:rdf="http://www.w3.org/1999/02/22-rdf-syntax-ns#"
   xmlns:svg="http://www.w3.org/2000/svg"
   xmlns="http://www.w3.org/2000/svg"
   height="400"
   width="400.00006"
   id="svg8"
   version="1.1"
   viewBox="0 0 400.00006 400">
  <metadata
     id="metadata11">
    <rdf:RDF>
      <cc:Work
         rdf:about="">
        <dc:format>image/svg+xml</dc:format>
        <dc:type
           rdf:resource="http://purl.org/dc/dcmitype/StillImage" />
        <dc:title></dc:title>
      </cc:Work>
    </rdf:RDF>
  </metadata>
  <defs
     id="defs2">
    <rect
       id="rect846"
       height="18.520832"
       width="15.875"
       y="127"
       x="47.625" />
  </defs>
  <g
     transform="matrix(2.519685,0,0,2.519685,-64.56689,-174.17323)"
     style="display:inline"
     id="layer1">
    <ellipse
       cx="105"
       cy="148.5"
       rx="79.375015"
       ry="79.375"
       id="path902"
       style="mix-blend-mode:normal;fill:#212529;fill-opacity:1;stroke:none;stroke-width:0.746362;stroke-linejoin:round;stroke-miterlimit:4;stroke-dasharray:none;stroke-opacity:1" />
    <path
       d="m 104.99902,75.317297 c 2e-5,0.0063 -1e-5,0.01255 0,0.01882 -7.51425,12.352631 -12.523673,24.915033 -12.523673,44.469973 -4.8e-5,9.79352 7.066036,23.83124 0.381153,26.68545 -17.371265,7.41692 -28.605289,5.91505 -30.236186,10.37567 h 42.380666 c 3e-5,-0.006 -3e-5,-0.0103 0,-0.0154 h 42.37871 c -1.63091,-4.46062 -12.86492,-2.95875 -30.23618,-10.37567 -6.6849,-2.85421 0.38119,-16.89193 0.38114,-26.68545 0,-19.5567 -5.01025,-32.119642 -12.52563,-44.473348 z m 0.0127,14.811901 c 2.37427,0.06327 4.26564,1.979818 4.26556,4.32235 -7e-5,2.346552 -1.89783,4.264734 -4.27632,4.32235 l -0.002,0.01544 c -2.37849,-0.05762 -4.27625,-1.975797 -4.27632,-4.322349 -8e-5,-2.342533 1.89129,-4.25908 4.26556,-4.32235 z"
       style="mix-blend-mode:normal;fill:#ffffff;stroke:#000000;stroke-width:0.746362;stroke-linejoin:round;stroke-miterlimit:4;stroke-dasharray:none;stroke-opacity:1"
       id="path837" />
    <path
       d="m 63.290627,157.04287 v 2.48666 c 0.942794,0.0424 1.929466,0.12765 2.960649,0.25528 1.031169,0.12763 2.01835,0.29761 2.961136,0.51007 1.149021,0.27648 1.915151,0.71229 2.29816,1.30728 0.35357,0.59513 0.53038,1.25395 0.53038,1.97659 v 32.04146 c 0,0.76518 -0.17681,1.41335 -0.53038,1.94475 -0.383019,0.5101 -1.149149,0.95653 -2.29816,1.33912 -0.589243,0.19125 -1.546775,0.37187 -2.872578,0.54192 -1.355258,0.17004 -2.401218,0.28675 -3.137768,0.35035 v 2.48666 h 33.984578 v -2.48666 c -1.001718,-0.0636 -2.224497,-0.16966 -3.668151,-0.3185 -1.473109,-0.14885 -2.474859,-0.30817 -3.005171,-0.47822 -1.090103,-0.3189 -1.870814,-0.75472 -2.342195,-1.30727 -0.471375,-0.5526 -0.707015,-1.25429 -0.707015,-2.10448 V 161.79325 L 105,194.1204 122.53589,161.79325 v 33.79463 c 0,0.85019 -0.23565,1.55188 -0.70702,2.10448 -0.47138,0.55255 -1.25209,0.98837 -2.34219,1.30727 -0.53032,0.17005 -1.53206,0.32937 -3.00518,0.47822 -1.44365,0.14884 -2.66643,0.25487 -3.66815,0.3185 v 2.48666 h 33.98458 v -2.48666 c -0.73655,-0.0636 -1.78251,-0.18031 -3.13777,-0.35035 -1.3258,-0.17005 -2.28334,-0.35067 -2.87257,-0.54192 -1.14901,-0.38259 -1.91515,-0.82902 -2.29817,-1.33912 -0.35357,-0.5314 -0.53038,-1.17957 -0.53038,-1.94475 v -32.04146 c 0,-0.72264 0.17681,-1.38146 0.53038,-1.97659 0.38301,-0.59499 1.14915,-1.0308 2.29817,-1.30728 0.94279,-0.21246 1.92995,-0.38244 2.96113,-0.51007 1.03117,-0.12763 2.01785,-0.21287 2.96065,-0.25528 v -2.48666 h -27.79711 c -0.0294,0.38258 -0.25052,1.19019 -0.66298,2.42296 -0.41248,1.23275 -0.83999,2.29562 -1.28192,3.18832 L 105,184.92557 93.032637,162.65415 c -0.44192,-0.8927 -0.869449,-1.95557 -1.281921,-3.18832 -0.412474,-1.23277 -0.633531,-2.04038 -0.662979,-2.42296 z"
       style="font-style:normal;font-variant:normal;font-weight:bold;font-stretch:normal;font-size:11.2889px;line-height:1.25;font-family:Georgia;-inkscape-font-specification:'Georgia, Bold';font-variant-ligatures:normal;font-variant-caps:normal;font-variant-numeric:normal;font-variant-east-asian:normal;letter-spacing:0px;word-spacing:0px;white-space:pre;display:inline;mix-blend-mode:normal;fill:#ffffff;fill-opacity:1;stroke:#000000;stroke-width:0.746365;stroke-miterlimit:4;stroke-dasharray:none;stroke-opacity:1"
       id="path850" />
  </g>
</svg>
